<svg xmlns="http://www.w3.org/2000/svg" viewBox="0 0 100 100" fill="none">
  <defs>
    <linearGradient id="red" x1="23" y1="28" x2="48" y2="88" gradientUnits="userSpaceOnUse">
      <stop stop-color="#FF334B"/><stop offset=".52" stop-color="#F00827"/><stop offset="1" stop-color="#FF4A13"/>
    </linearGradient>
    <linearGradient id="blue" x1="72" y1="6" x2="64" y2="87" gradientUnits="userSpaceOnUse">
      <stop stop-color="#00B8FF"/><stop offset=".5" stop-color="#008CFF"/><stop offset="1" stop-color="#005BEF"/>
    </linearGradient>
  </defs>
  <path fill="url(#red)" d="M14 30 28 29 35 56 52 28 68 27 8 96 31 64 25 64Z"/>
  <path fill="url(#blue)" d="M86 4 61 48C73 44 85 47 91 56L80 62C76 56 66 55 62 59 58 64 68 66 76 69 87 73 90 82 82 90 71 101 48 97 42 85L55 80C59 87 70 89 75 85 81 80 68 77 61 75 48 71 47 64 53 54Z"/>
</svg>
